<?xml version="1.0" standalone="no"?>
<!DOCTYPE svg PUBLIC "-//W3C//DTD SVG 20010904//EN"
 "http://www.w3.org/TR/2001/REC-SVG-20010904/DTD/svg10.dtd">
<svg version="1.0" xmlns="http://www.w3.org/2000/svg"
 width="300.000000pt" height="300.000000pt" viewBox="0 0 300.000000 300.000000"
 preserveAspectRatio="xMidYMid meet">
<metadata>
Created by potrace 1.10, written by Peter Selinger 2001-2011
</metadata>
<g transform="translate(0.000000,300.000000) scale(0.100000,-0.100000)"
fill="#000000" stroke="none">
<path d="M1438 2593 c23 -2 59 -2 80 0 20 2 1 4 -43 4 -44 0 -61 -2 -37 -4z"/>
<path d="M1305 2516 c-181 -45 -358 -157 -471 -300 -112 -141 -171 -280 -181
-426 -11 -160 40 -294 151 -397 104 -97 200 -133 362 -133 229 0 447 99 617
280 87 93 129 161 175 283 61 161 55 347 -15 467 -61 104 -181 191 -310 224
-73 19 -255 20 -328 2z m82 -47 c-145 -21 -307 -100 -437 -214 l-65 -57 67 65
c127 121 328 217 453 215 34 0 31 -2 -18 -9z m305 -48 c177 -61 240 -131 272
-301 17 -86 21 -158 9 -146 -4 4 -12 -12 -18 -36 -6 -24 -16 -42 -22 -41 -6 1
-14 -19 -18 -45 -4 -26 -17 -74 -30 -108 -80 -212 -310 -396 -560 -447 -278
-56 -492 27 -588 231 -31 66 -32 70 -32 207 1 85 6 150 13 165 10 22 11 20 5
-17 -7 -53 1 -55 18 -5 91 280 332 498 614 557 94 19 260 13 337 -14z m-919
-406 c-15 -30 -29 -53 -31 -51 -4 5 46 106 53 106 3 0 -7 -25 -22 -55z"/>
<path d="M1545 2400 c153 -11 208 -33 303 -124 49 -47 55 -37 13 22 -21 28
-51 51 -98 74 -65 32 -72 33 -198 34 l-130 2 110 -8z"/>
<path d="M1728 2266 c-177 -64 -480 -357 -697 -676 -82 -121 -84 -125 -55
-125 17 0 24 6 24 18 0 45 217 324 374 481 177 177 318 276 394 276 17 0 50
-7 72 -16 52 -21 60 -13 18 19 -43 32 -84 40 -130 23z"/>
<path d="M908 2103 c-32 -37 -85 -130 -101 -177 -33 -97 -17 -89 18 9 14 37
42 93 64 126 41 61 46 72 19 42z"/>
<path d="M1873 1881 c-49 -206 -160 -352 -358 -469 -58 -35 -104 -66 -101 -69
10 -10 161 69 227 119 147 111 240 272 256 441 3 37 4 67 2 67 -2 0 -14 -40
-26 -89z"/>
<path d="M740 1624 c0 -30 86 -191 96 -181 8 7 -26 77 -37 77 -5 0 -8 4 -5 9
4 5 3 11 -2 13 -4 1 -18 23 -30 48 -12 25 -22 40 -22 34z"/>
<path d="M809 1561 c9 -27 17 -48 19 -46 4 4 48 -40 59 -59 5 -8 15 -11 27 -7
16 6 14 10 -17 33 -19 15 -49 50 -67 77 -17 28 -33 51 -34 51 -2 0 5 -22 13
-49z"/>
<path d="M930 1431 c-9 -17 -8 -20 5 -15 8 4 43 -5 78 -19 61 -25 193 -54 203
-44 3 2 -16 8 -41 11 -57 9 -175 49 -208 71 -24 16 -26 15 -37 -4z"/>
<path d="M1855 2481 c6 -11 4 -13 -11 -8 -11 4 -4 -7 18 -27 52 -50 113 -133
137 -188 33 -79 47 -195 31 -280 -17 -100 -46 -190 -87 -273 -18 -38 -27 -61
-18 -50 32 39 86 164 106 246 31 119 24 279 -14 363 -31 67 -32 70 -14 60 7
-4 9 -3 4 2 -5 5 -14 9 -20 9 -7 0 -12 7 -12 15 0 8 -5 16 -10 18 -16 5 -45
34 -45 44 0 5 6 6 13 2 6 -4 3 2 -7 14 -20 23 -32 30 -21 12 3 -5 2 -10 -3
-10 -12 0 -33 25 -27 32 3 3 -2 11 -12 19 -14 12 -16 12 -8 0z"/>
<path d="M919 2387 c-66 -55 -135 -128 -171 -182 -11 -16 -1 -7 23 20 56 65
134 142 184 182 22 18 38 32 34 32 -3 1 -34 -23 -70 -52z"/>
<path d="M2063 2243 c5 -6 24 -40 43 -75 18 -35 34 -59 34 -55 0 14 -47 101
-66 123 -11 11 -15 14 -11 7z"/>
<path d="M652 2045 c-7 -15 -10 -31 -7 -36 4 -5 2 -9 -4 -9 -6 0 -8 -7 -5 -15
4 -8 1 -15 -6 -15 -6 0 -9 -4 -5 -9 3 -5 1 -12 -4 -16 -6 -3 -8 -12 -4 -20 3
-8 0 -15 -7 -15 -7 0 -9 -8 -5 -20 3 -11 3 -25 -1 -32 -4 -7 -6 -34 -5 -61 2
-30 -1 -47 -7 -43 -10 6 -10 -7 6 -104 5 -30 8 -58 6 -62 -2 -3 1 -8 7 -10 6
-2 12 -16 12 -31 1 -15 5 -27 8 -27 4 0 10 -7 13 -16 4 -9 2 -13 -5 -8 -16 10
4 -25 46 -80 19 -25 51 -67 71 -93 58 -78 174 -193 215 -214 75 -38 164 -51
304 -46 132 5 215 23 342 78 38 16 43 22 33 34 -6 8 -10 20 -8 27 8 22 48 -78
48 -120 0 -22 4 -44 10 -47 5 -3 14 -23 20 -44 10 -38 141 -203 307 -388 66
-74 78 -83 119 -89 63 -9 124 16 173 72 47 54 58 117 29 165 -15 25 -24 29
-63 29 -36 0 -55 -7 -83 -29 -20 -16 -45 -31 -55 -33 -18 -3 -67 -104 -67
-138 0 -8 -9 3 -19 25 -10 22 -32 56 -50 75 -17 19 -46 56 -64 82 -17 26 -39
50 -47 53 -9 3 -23 17 -32 32 -10 16 -31 44 -47 63 -17 19 -36 47 -42 62 -6
16 -16 28 -21 28 -19 0 6 47 50 93 26 26 40 47 33 47 -13 0 -52 -37 -100 -96
-23 -28 -24 -28 -16 -4 13 45 58 101 100 126 49 28 125 33 145 9 7 -8 17 -15
23 -15 5 0 -7 14 -28 30 -63 50 -158 32 -220 -41 -24 -29 -27 -31 -22 -11 5
20 3 21 -10 10 -14 -11 -15 -11 -6 7 6 11 21 29 32 39 12 11 21 23 21 28 0 15
-22 8 -39 -13 l-17 -21 -28 24 -28 24 27 32 c14 17 42 36 61 41 41 11 84 -1
84 -23 0 -8 4 -18 10 -21 5 -3 7 0 5 8 -4 8 19 35 55 66 69 60 145 162 197
266 34 67 64 153 65 185 0 8 2 22 5 30 3 8 6 60 7 115 1 55 0 90 -2 78 -2 -13
-7 -23 -11 -23 -5 0 -11 -35 -14 -77 -12 -151 -54 -264 -153 -409 -42 -62
-118 -144 -133 -144 -3 0 -19 11 -36 25 l-30 25 41 39 c129 123 241 343 257
504 7 69 -6 57 -21 -20 -40 -209 -183 -424 -375 -562 -145 -103 -224 -140
-372 -171 -100 -21 -276 -23 -310 -3 -11 6 -41 19 -67 28 -51 18 -158 84 -158
98 0 4 5 5 10 2 23 -14 7 36 -23 73 -117 140 -154 268 -130 452 6 52 19 120
27 150 16 58 8 89 -12 45z m1158 -695 c20 -20 26 -40 12 -40 -4 0 -13 9 -20
20 -40 64 -173 -36 -176 -132 -1 -29 -10 -36 -22 -16 -5 8 -10 7 -18 -4 -12
-17 -64 -37 -167 -63 -87 -23 -268 -23 -346 0 -88 26 -111 36 -125 53 -11 13
-9 14 17 8 17 -4 84 -10 150 -13 163 -6 278 15 412 77 50 23 63 25 63 8 0 -7
9 1 19 18 11 18 34 43 53 57 65 50 116 59 148 27z m538 -623 c9 -10 4 -12 -23
-9 -19 2 -46 1 -60 -2 -28 -7 -105 -72 -105 -89 0 -6 17 5 38 25 35 35 79 58
105 58 7 -1 -6 -10 -28 -21 -42 -21 -95 -67 -95 -83 0 -5 10 0 23 11 24 23 80
53 97 53 21 0 9 -39 -22 -69 -42 -41 -77 -50 -95 -26 -12 18 -13 18 -13 -3 0
-13 -6 -22 -16 -22 -9 0 -12 -5 -8 -12 4 -6 3 -8 -4 -4 -20 12 -24 63 -8 94
19 37 72 91 100 102 33 13 102 11 114 -3z"/>
<path d="M2056 1111 c22 -26 80 -92 128 -148 49 -57 90 -103 93 -103 7 0 -146
178 -207 240 -30 31 -37 36 -14 11z"/>
<path d="M2061 973 c77 -93 145 -170 151 -172 6 -2 -54 73 -133 168 -79 94
-147 171 -151 171 -5 0 55 -75 133 -167z"/>
<path d="M1797 1064 c-3 -4 22 -36 58 -73 57 -59 173 -192 224 -257 20 -25 31
-30 31 -14 0 14 -278 344 -293 348 -7 1 -16 0 -20 -4z"/>
</g>
</svg>
